<mxfile host="app.diagrams.net" modified="2020-08-24T10:34:40.346Z" agent="5.0 (Macintosh; Intel Mac OS X 10_15_6) AppleWebKit/537.36 (KHTML, like Gecko) Chrome/84.0.4147.135 Safari/537.36" etag="LUitfk2tPT512H6PdAAF" version="13.6.4" type="github">
  <diagram name="Page-1" id="0783ab3e-0a74-02c8-0abd-f7b4e66b4bec">
    <mxGraphModel dx="2181" dy="2071" grid="1" gridSize="10" guides="1" tooltips="1" connect="1" arrows="1" fold="1" page="1" pageScale="1" pageWidth="850" pageHeight="1100" background="#ffffff" math="0" shadow="0">
      <root>
        <mxCell id="0" />
        <mxCell id="1" parent="0" />
        <mxCell id="6dAeS9QVwrUZ58AkiKPR-1" value="" style="ellipse;html=1;shape=startState;fillColor=#000000;strokeColor=#ff0000;" vertex="1" parent="1">
          <mxGeometry x="355" y="-130" width="30" height="30" as="geometry" />
        </mxCell>
        <mxCell id="6dAeS9QVwrUZ58AkiKPR-2" value="" style="edgeStyle=orthogonalEdgeStyle;html=1;verticalAlign=bottom;endArrow=open;endSize=8;strokeColor=#ff0000;entryX=0.5;entryY=0;entryDx=0;entryDy=0;" edge="1" source="6dAeS9QVwrUZ58AkiKPR-1" parent="1" target="6dAeS9QVwrUZ58AkiKPR-17">
          <mxGeometry relative="1" as="geometry">
            <mxPoint x="369.25" y="-42" as="targetPoint" />
            <Array as="points" />
          </mxGeometry>
        </mxCell>
        <mxCell id="6dAeS9QVwrUZ58AkiKPR-4" value="" style="shape=line;html=1;strokeWidth=6;strokeColor=#ff0000;" vertex="1" parent="1">
          <mxGeometry x="-350" y="120" width="820" height="10" as="geometry" />
        </mxCell>
        <mxCell id="6dAeS9QVwrUZ58AkiKPR-7" value="" style="edgeStyle=orthogonalEdgeStyle;html=1;verticalAlign=bottom;endArrow=open;endSize=8;strokeColor=#ff0000;entryX=0.5;entryY=0;entryDx=0;entryDy=0;exitX=0.75;exitY=0.5;exitDx=0;exitDy=0;exitPerimeter=0;" edge="1" parent="1" source="6dAeS9QVwrUZ58AkiKPR-22" target="6dAeS9QVwrUZ58AkiKPR-50">
          <mxGeometry relative="1" as="geometry">
            <mxPoint x="640" y="201" as="targetPoint" />
            <mxPoint x="650" y="160" as="sourcePoint" />
            <Array as="points" />
          </mxGeometry>
        </mxCell>
        <mxCell id="6dAeS9QVwrUZ58AkiKPR-8" value="" style="html=1;verticalAlign=bottom;endArrow=open;endSize=8;strokeColor=#ff0000;entryX=0.5;entryY=0;entryDx=0;entryDy=0;" edge="1" parent="1" target="6dAeS9QVwrUZ58AkiKPR-45">
          <mxGeometry relative="1" as="geometry">
            <mxPoint x="395" y="201" as="targetPoint" />
            <mxPoint x="400" y="127" as="sourcePoint" />
          </mxGeometry>
        </mxCell>
        <mxCell id="6dAeS9QVwrUZ58AkiKPR-9" value="" style="html=1;verticalAlign=bottom;endArrow=open;endSize=8;strokeColor=#ff0000;entryX=0.5;entryY=0;entryDx=0;entryDy=0;exitX=0.615;exitY=0.628;exitDx=0;exitDy=0;exitPerimeter=0;" edge="1" parent="1" source="6dAeS9QVwrUZ58AkiKPR-4" target="6dAeS9QVwrUZ58AkiKPR-25">
          <mxGeometry relative="1" as="geometry">
            <mxPoint x="260.0000000000002" y="201" as="targetPoint" />
            <mxPoint x="260" y="123" as="sourcePoint" />
          </mxGeometry>
        </mxCell>
        <mxCell id="6dAeS9QVwrUZ58AkiKPR-17" value="Login?" style="rhombus;whiteSpace=wrap;html=1;fillColor=#ffffc0;strokeColor=#ff0000;" vertex="1" parent="1">
          <mxGeometry x="330" y="-20" width="80" height="40" as="geometry" />
        </mxCell>
        <mxCell id="6dAeS9QVwrUZ58AkiKPR-19" value="no" style="edgeStyle=orthogonalEdgeStyle;html=1;align=left;verticalAlign=top;endArrow=open;endSize=8;strokeColor=#ff0000;entryX=0.25;entryY=0.5;entryDx=0;entryDy=0;entryPerimeter=0;" edge="1" source="6dAeS9QVwrUZ58AkiKPR-17" parent="1" target="6dAeS9QVwrUZ58AkiKPR-22">
          <mxGeometry x="-1" relative="1" as="geometry">
            <mxPoint x="570" y="50" as="targetPoint" />
            <Array as="points">
              <mxPoint x="540" />
            </Array>
          </mxGeometry>
        </mxCell>
        <mxCell id="6dAeS9QVwrUZ58AkiKPR-21" value="yes" style="edgeStyle=orthogonalEdgeStyle;html=1;align=left;verticalAlign=bottom;endArrow=open;endSize=8;strokeColor=#ff0000;exitX=0;exitY=0.5;exitDx=0;exitDy=0;" edge="1" parent="1" source="6dAeS9QVwrUZ58AkiKPR-17" target="6dAeS9QVwrUZ58AkiKPR-4">
          <mxGeometry x="-0.875" relative="1" as="geometry">
            <mxPoint x="160" y="150" as="targetPoint" />
            <mxPoint x="120" y="30" as="sourcePoint" />
            <Array as="points">
              <mxPoint x="298" />
            </Array>
            <mxPoint as="offset" />
          </mxGeometry>
        </mxCell>
        <mxCell id="6dAeS9QVwrUZ58AkiKPR-22" value="" style="shape=line;html=1;strokeWidth=6;strokeColor=#ff0000;" vertex="1" parent="1">
          <mxGeometry x="490" y="50" width="200" height="10" as="geometry" />
        </mxCell>
        <mxCell id="6dAeS9QVwrUZ58AkiKPR-24" value="" style="edgeStyle=orthogonalEdgeStyle;html=1;verticalAlign=bottom;endArrow=open;endSize=8;strokeColor=#ff0000;exitX=0.154;exitY=0.505;exitDx=0;exitDy=0;exitPerimeter=0;" edge="1" parent="1" source="6dAeS9QVwrUZ58AkiKPR-22">
          <mxGeometry relative="1" as="geometry">
            <mxPoint x="413" y="125" as="targetPoint" />
            <mxPoint x="519.9999999999998" y="60" as="sourcePoint" />
            <Array as="points">
              <mxPoint x="521" y="70" />
              <mxPoint x="413" y="70" />
            </Array>
          </mxGeometry>
        </mxCell>
        <mxCell id="6dAeS9QVwrUZ58AkiKPR-27" value="" style="edgeStyle=orthogonalEdgeStyle;html=1;verticalAlign=bottom;endArrow=open;endSize=8;strokeColor=#ff0000;entryX=0.25;entryY=0.5;entryDx=0;entryDy=0;entryPerimeter=0;" edge="1" source="6dAeS9QVwrUZ58AkiKPR-25" parent="1" target="6dAeS9QVwrUZ58AkiKPR-40">
          <mxGeometry relative="1" as="geometry">
            <mxPoint x="115" y="483" as="targetPoint" />
            <Array as="points">
              <mxPoint x="160" y="433" />
              <mxPoint x="160" y="433" />
            </Array>
          </mxGeometry>
        </mxCell>
        <mxCell id="6dAeS9QVwrUZ58AkiKPR-32" value="" style="html=1;verticalAlign=bottom;endArrow=open;endSize=8;strokeColor=#ff0000;entryX=0.5;entryY=0;entryDx=0;entryDy=0;exitX=0.348;exitY=0.656;exitDx=0;exitDy=0;exitPerimeter=0;" edge="1" target="6dAeS9QVwrUZ58AkiKPR-30" parent="1" source="6dAeS9QVwrUZ58AkiKPR-4">
          <mxGeometry relative="1" as="geometry">
            <mxPoint x="80.00000000000023" y="198" as="targetPoint" />
            <mxPoint x="-65" y="150" as="sourcePoint" />
          </mxGeometry>
        </mxCell>
        <mxCell id="6dAeS9QVwrUZ58AkiKPR-33" value="" style="edgeStyle=orthogonalEdgeStyle;html=1;verticalAlign=bottom;endArrow=open;endSize=8;strokeColor=#ff0000;" edge="1" source="6dAeS9QVwrUZ58AkiKPR-30" parent="1" target="6dAeS9QVwrUZ58AkiKPR-35">
          <mxGeometry relative="1" as="geometry">
            <mxPoint x="-65" y="480" as="targetPoint" />
            <Array as="points">
              <mxPoint x="-65" y="433" />
              <mxPoint x="-65" y="433" />
            </Array>
          </mxGeometry>
        </mxCell>
        <mxCell id="6dAeS9QVwrUZ58AkiKPR-35" value="" style="shape=line;html=1;strokeWidth=6;strokeColor=#ff0000;" vertex="1" parent="1">
          <mxGeometry x="-145" y="483" width="180" height="10" as="geometry" />
        </mxCell>
        <mxCell id="6dAeS9QVwrUZ58AkiKPR-36" value="" style="edgeStyle=orthogonalEdgeStyle;html=1;verticalAlign=bottom;endArrow=open;endSize=8;strokeColor=#ff0000;" edge="1" parent="1" target="6dAeS9QVwrUZ58AkiKPR-38">
          <mxGeometry relative="1" as="geometry">
            <mxPoint x="-116" y="563" as="targetPoint" />
            <mxPoint x="-116" y="493" as="sourcePoint" />
            <Array as="points">
              <mxPoint x="-115" y="493" />
            </Array>
          </mxGeometry>
        </mxCell>
        <mxCell id="6dAeS9QVwrUZ58AkiKPR-37" value="" style="edgeStyle=orthogonalEdgeStyle;html=1;verticalAlign=bottom;endArrow=open;endSize=8;strokeColor=#ff0000;entryX=0.449;entryY=-0.013;entryDx=0;entryDy=0;entryPerimeter=0;" edge="1" parent="1" source="6dAeS9QVwrUZ58AkiKPR-35" target="6dAeS9QVwrUZ58AkiKPR-39">
          <mxGeometry relative="1" as="geometry">
            <mxPoint x="15" y="563" as="targetPoint" />
            <mxPoint x="15" y="503" as="sourcePoint" />
            <Array as="points">
              <mxPoint x="14" y="528" />
              <mxPoint x="14" y="528" />
            </Array>
          </mxGeometry>
        </mxCell>
        <mxCell id="6dAeS9QVwrUZ58AkiKPR-38" value="Users details" style="html=1;" vertex="1" parent="1">
          <mxGeometry x="-165" y="563" width="90" height="30" as="geometry" />
        </mxCell>
        <mxCell id="6dAeS9QVwrUZ58AkiKPR-39" value="Repositories details" style="html=1;" vertex="1" parent="1">
          <mxGeometry x="-35" y="563" width="110" height="30" as="geometry" />
        </mxCell>
        <mxCell id="6dAeS9QVwrUZ58AkiKPR-40" value="" style="shape=line;html=1;strokeWidth=6;strokeColor=#ff0000;" vertex="1" parent="1">
          <mxGeometry x="115" y="483" width="180" height="10" as="geometry" />
        </mxCell>
        <mxCell id="6dAeS9QVwrUZ58AkiKPR-41" value="" style="edgeStyle=orthogonalEdgeStyle;html=1;verticalAlign=bottom;endArrow=open;endSize=8;strokeColor=#ff0000;" edge="1" target="6dAeS9QVwrUZ58AkiKPR-43" parent="1">
          <mxGeometry relative="1" as="geometry">
            <mxPoint x="144" y="563" as="targetPoint" />
            <mxPoint x="144" y="493" as="sourcePoint" />
            <Array as="points">
              <mxPoint x="145" y="493" />
            </Array>
          </mxGeometry>
        </mxCell>
        <mxCell id="6dAeS9QVwrUZ58AkiKPR-42" value="" style="edgeStyle=orthogonalEdgeStyle;html=1;verticalAlign=bottom;endArrow=open;endSize=8;strokeColor=#ff0000;entryX=0.449;entryY=-0.013;entryDx=0;entryDy=0;entryPerimeter=0;" edge="1" source="6dAeS9QVwrUZ58AkiKPR-40" target="6dAeS9QVwrUZ58AkiKPR-44" parent="1">
          <mxGeometry relative="1" as="geometry">
            <mxPoint x="275" y="563" as="targetPoint" />
            <mxPoint x="275" y="503" as="sourcePoint" />
            <Array as="points">
              <mxPoint x="274" y="528" />
              <mxPoint x="274" y="528" />
            </Array>
          </mxGeometry>
        </mxCell>
        <mxCell id="6dAeS9QVwrUZ58AkiKPR-43" value="Users details" style="html=1;" vertex="1" parent="1">
          <mxGeometry x="95" y="563" width="90" height="30" as="geometry" />
        </mxCell>
        <mxCell id="6dAeS9QVwrUZ58AkiKPR-44" value="Repositories details" style="html=1;" vertex="1" parent="1">
          <mxGeometry x="225" y="563" width="110" height="30" as="geometry" />
        </mxCell>
        <mxCell id="6dAeS9QVwrUZ58AkiKPR-30" value="Trending" style="swimlane;html=1;fontStyle=1;align=center;verticalAlign=middle;childLayout=stackLayout;horizontal=1;startSize=30;horizontalStack=0;resizeParent=0;resizeLast=1;container=0;fontColor=#000000;collapsible=0;rounded=1;arcSize=30;strokeColor=#ff0000;fillColor=#ffffc0;swimlaneFillColor=#ffffc0;dropTarget=0;" vertex="1" parent="1">
          <mxGeometry x="-145" y="201" width="160" height="102" as="geometry" />
        </mxCell>
        <mxCell id="6dAeS9QVwrUZ58AkiKPR-31" value="&lt;ul&gt;&lt;li&gt;Daily&lt;/li&gt;&lt;li&gt;Weekly&lt;/li&gt;&lt;li&gt;Monthly&lt;/li&gt;&lt;/ul&gt;" style="text;html=1;strokeColor=none;fillColor=none;align=left;verticalAlign=middle;spacingLeft=4;spacingRight=4;whiteSpace=wrap;overflow=hidden;rotatable=0;fontColor=#000000;" vertex="1" parent="6dAeS9QVwrUZ58AkiKPR-30">
          <mxGeometry y="30" width="160" height="72" as="geometry" />
        </mxCell>
        <mxCell id="6dAeS9QVwrUZ58AkiKPR-25" value="Search" style="swimlane;html=1;fontStyle=1;align=center;verticalAlign=middle;childLayout=stackLayout;horizontal=1;startSize=30;horizontalStack=0;resizeParent=0;resizeLast=1;container=0;fontColor=#000000;collapsible=0;rounded=1;arcSize=30;strokeColor=#ff0000;fillColor=#ffffc0;swimlaneFillColor=#ffffc0;dropTarget=0;" vertex="1" parent="1">
          <mxGeometry x="75" y="201" width="160" height="169" as="geometry" />
        </mxCell>
        <mxCell id="6dAeS9QVwrUZ58AkiKPR-26" value="&lt;ul&gt;&lt;li&gt;Best match&lt;/li&gt;&lt;li&gt;Most stars&lt;/li&gt;&lt;li&gt;Fewest stars&lt;/li&gt;&lt;li&gt;Most forks&lt;/li&gt;&lt;li&gt;Fewest forks&lt;/li&gt;&lt;li&gt;Recently updated&lt;/li&gt;&lt;li&gt;Last recently updated&lt;/li&gt;&lt;/ul&gt;" style="text;html=1;strokeColor=none;fillColor=none;align=left;verticalAlign=middle;spacingLeft=4;spacingRight=4;whiteSpace=wrap;overflow=hidden;rotatable=0;fontColor=#000000;" vertex="1" parent="6dAeS9QVwrUZ58AkiKPR-25">
          <mxGeometry y="30" width="160" height="139" as="geometry" />
        </mxCell>
        <mxCell id="6dAeS9QVwrUZ58AkiKPR-45" value="Setting" style="swimlane;html=1;fontStyle=1;align=center;verticalAlign=middle;childLayout=stackLayout;horizontal=1;startSize=30;horizontalStack=0;resizeParent=0;resizeLast=1;container=0;fontColor=#000000;collapsible=0;rounded=1;arcSize=30;strokeColor=#ff0000;fillColor=#ffffc0;swimlaneFillColor=#ffffc0;dropTarget=0;" vertex="1" parent="1">
          <mxGeometry x="320" y="201" width="160" height="139" as="geometry" />
        </mxCell>
        <mxCell id="6dAeS9QVwrUZ58AkiKPR-46" value="&lt;ul&gt;&lt;li&gt;Ads&amp;nbsp;&lt;/li&gt;&lt;li&gt;Night mode&lt;/li&gt;&lt;li&gt;Color theme&lt;/li&gt;&lt;li&gt;Language&lt;/li&gt;&lt;li&gt;Invite friends&lt;/li&gt;&lt;li&gt;Remove cache&lt;/li&gt;&lt;/ul&gt;" style="text;html=1;strokeColor=none;fillColor=none;align=left;verticalAlign=middle;spacingLeft=4;spacingRight=4;whiteSpace=wrap;overflow=hidden;rotatable=0;fontColor=#000000;" vertex="1" parent="6dAeS9QVwrUZ58AkiKPR-45">
          <mxGeometry y="30" width="160" height="109" as="geometry" />
        </mxCell>
        <mxCell id="6dAeS9QVwrUZ58AkiKPR-47" value="Programing Language" style="rounded=1;whiteSpace=wrap;html=1;arcSize=40;fontColor=#000000;fillColor=#ffffc0;strokeColor=#ff0000;" vertex="1" parent="1">
          <mxGeometry x="-370" y="201" width="120" height="40" as="geometry" />
        </mxCell>
        <mxCell id="6dAeS9QVwrUZ58AkiKPR-49" value="" style="html=1;verticalAlign=bottom;endArrow=open;endSize=8;strokeColor=#ff0000;exitX=0.348;exitY=0.656;exitDx=0;exitDy=0;exitPerimeter=0;" edge="1" parent="1">
          <mxGeometry relative="1" as="geometry">
            <mxPoint x="-310" y="200" as="targetPoint" />
            <mxPoint x="-310.35000000000036" y="129.99999999999994" as="sourcePoint" />
          </mxGeometry>
        </mxCell>
        <mxCell id="6dAeS9QVwrUZ58AkiKPR-50" value="Login" style="swimlane;html=1;fontStyle=1;align=center;verticalAlign=middle;childLayout=stackLayout;horizontal=1;startSize=30;horizontalStack=0;resizeParent=0;resizeLast=1;container=0;fontColor=#000000;collapsible=0;rounded=1;arcSize=30;strokeColor=#ff0000;fillColor=#ffffc0;swimlaneFillColor=#ffffc0;dropTarget=0;" vertex="1" parent="1">
          <mxGeometry x="560" y="201" width="160" height="99" as="geometry" />
        </mxCell>
        <mxCell id="6dAeS9QVwrUZ58AkiKPR-51" value="&lt;ul&gt;&lt;li&gt;OAuth&lt;/li&gt;&lt;li&gt;Personal&lt;/li&gt;&lt;li&gt;Basic&lt;/li&gt;&lt;/ul&gt;" style="text;html=1;strokeColor=none;fillColor=none;align=left;verticalAlign=middle;spacingLeft=4;spacingRight=4;whiteSpace=wrap;overflow=hidden;rotatable=0;fontColor=#000000;" vertex="1" parent="6dAeS9QVwrUZ58AkiKPR-50">
          <mxGeometry y="30" width="160" height="69" as="geometry" />
        </mxCell>
      </root>
    </mxGraphModel>
  </diagram>
</mxfile>
